<?xml version="1.0" encoding="UTF-8" standalone="no"?>
<svg
   xmlns:dc="http://purl.org/dc/elements/1.1/"
   xmlns:cc="http://creativecommons.org/ns#"
   xmlns:rdf="http://www.w3.org/1999/02/22-rdf-syntax-ns#"
   xmlns:svg="http://www.w3.org/2000/svg"
   xmlns="http://www.w3.org/2000/svg"
   xmlns:xlink="http://www.w3.org/1999/xlink"
   xmlns:sodipodi="http://sodipodi.sourceforge.net/DTD/sodipodi-0.dtd"
   xmlns:inkscape="http://www.inkscape.org/namespaces/inkscape"
   width="158"
   height="39.013"
   viewBox="0 0 158 39.013001"
   version="1.1"
   id="svg25"
   sodipodi:docname="logo_paguru.svg"
   inkscape:version="0.92.4 5da689c313, 2019-01-14">
  <metadata
     id="metadata29">
    <rdf:RDF>
      <cc:Work
         rdf:about="">
        <dc:format>image/svg+xml</dc:format>
        <dc:type
           rdf:resource="http://purl.org/dc/dcmitype/StillImage" />
        <dc:title></dc:title>
      </cc:Work>
    </rdf:RDF>
  </metadata>
  <sodipodi:namedview
     pagecolor="#ffffff"
     bordercolor="#666666"
     borderopacity="1"
     objecttolerance="10"
     gridtolerance="10"
     guidetolerance="10"
     inkscape:pageopacity="0"
     inkscape:pageshadow="2"
     inkscape:window-width="1366"
     inkscape:window-height="711"
     id="namedview27"
     showgrid="false"
     inkscape:zoom="0.78046542"
     inkscape:cx="178.7395"
     inkscape:cy="44.132999"
     inkscape:window-x="0"
     inkscape:window-y="0"
     inkscape:window-maximized="1"
     inkscape:current-layer="svg25" />
  <defs
     id="defs14">
    <linearGradient
       id="linear-gradient"
       x1="126.441"
       y1="-237.869"
       x2="142.51601"
       y2="-204.002"
       gradientUnits="objectBoundingBox">
      <stop
         offset="0"
         stop-color="#f15a24"
         id="stop2" />
      <stop
         offset="1"
         stop-color="#e3450c"
         id="stop4" />
    </linearGradient>
    <linearGradient
       id="linear-gradient-2"
       x1="146.12399"
       y1="-266.827"
       x2="181.254"
       y2="-270.845"
       gradientUnits="objectBoundingBox">
      <stop
         offset="0"
         stop-color="#e3450c"
         id="stop7" />
      <stop
         offset="1"
         stop-color="#a62e02"
         id="stop9" />
    </linearGradient>
    <linearGradient
       id="linear-gradient-3"
       x1="6052.8921"
       y1="-11241.697"
       x2="6840.1299"
       y2="-12893.109"
       xlink:href="#linear-gradient"
       gradientTransform="scale(1.2021569,0.83183815)"
       gradientUnits="userSpaceOnUse" />
    <linearGradient
       id="linear-gradient-4"
       x1="5926.6709"
       y1="-12612.882"
       x2="7251.8989"
       y2="-12461.015"
       xlink:href="#linear-gradient-2"
       gradientTransform="scale(1.1980939,0.83465915)"
       gradientUnits="userSpaceOnUse" />
    <linearGradient
       inkscape:collect="always"
       xlink:href="#linear-gradient"
       id="linearGradient31"
       gradientUnits="userSpaceOnUse"
       x1="6179.2339"
       y1="-11599.165"
       x2="6964.7959"
       y2="-9944.1348"
       gradientTransform="scale(1.2047428,0.8300527)" />
    <linearGradient
       inkscape:collect="always"
       xlink:href="#linear-gradient-2"
       id="linearGradient33"
       gradientUnits="userSpaceOnUse"
       x1="5517.2173"
       y1="-10055.82"
       x2="6843.6245"
       y2="-10207.529"
       gradientTransform="scale(1.1969141,0.83548181)" />
  </defs>
  <g
     id="Grupo_119"
     data-name="Grupo 119"
     transform="matrix(0.44198524,0,0,0.44198524,-196.68343,-737.02003)">
    <g
       id="Camada_x0020_1"
       transform="translate(445,1667.526)">
      <g
         id="_2480453900032">
        <path
           id="Caminho_551"
           data-name="Caminho 551"
           d="m 25.986,35.019 c -0.353,3.884 -3.354,9.356 -5.737,12.534 A 29.9,29.9 0 0 1 10.01,55.762 C 7.891,56.733 3.213,58.5 0.3,58.5 v 0.441 c 2.118,0.177 13.681,6.708 27.627,-2.118 a 33.177,33.177 0 0 0 6.267,-5.3 44.449,44.449 0 0 1 5.3,-6.09 10.566,10.566 0 0 1 9,-1.854 c 5.737,1.589 10.415,8.032 10.415,12.71 h 0.265 V 44.64 a 29.466,29.466 0 0 0 -4.5,-14.564 c -1.765,-2.913 -6.62,-8.121 -9.444,-9.18 -4.678,-0.353 -9.268,2.825 -11.739,4.855 -1.589,1.324 -6.443,6.708 -7.238,8.562 0,0.088 -0.088,0.265 -0.088,0.353 l -0.177,0.353 z"
           transform="translate(-0.035,-16.307)"
           style="fill:url(#linearGradient31);fill-rule:evenodd"
           inkscape:connector-curvature="0" />
        <path
           id="Caminho_552"
           data-name="Caminho 552"
           d="m 25.95,34.412 0.177,-0.353 c 0,-0.088 0.088,-0.265 0.088,-0.353 0.794,-1.854 5.649,-7.238 7.238,-8.562 2.471,-2.03 7.061,-5.208 11.739,-4.855 A 14.26,14.26 0 0 0 42.014,18.435 32.931,32.931 0 0 0 30.452,15.7 H 28.245 A 30.424,30.424 0 0 0 13.77,20.378 32.131,32.131 0 0 0 3.8,30.794 C 1.324,35.207 0,40.238 0,47.211 a 29.6,29.6 0 0 0 8.738,-0.883 30.183,30.183 0 0 0 6.973,-2.736 13.288,13.288 0 0 1 1.5,-0.883 L 22.6,38.473 c 0.53,-0.53 0.618,-0.794 1.147,-1.412 l 2.207,-2.648 z"
           transform="translate(0,-15.7)"
           style="fill:url(#linearGradient33);fill-rule:evenodd"
           inkscape:connector-curvature="0" />
        <path
           id="Caminho_553"
           data-name="Caminho 553"
           d="m 33.188,90.989 c 0.353,-3.884 3.354,-9.356 5.737,-12.534 a 30.752,30.752 0 0 1 10.239,-8.209 c 2.118,-0.971 6.8,-2.736 9.709,-2.736 V 67.069 C 56.755,66.892 45.192,60.361 31.246,69.187 a 33.177,33.177 0 0 0 -6.267,5.3 44.448,44.448 0 0 1 -5.3,6.09 10.566,10.566 0 0 1 -9,1.854 C 4.943,80.838 0.177,74.307 0.177,69.717 H 0 v 11.828 a 29.466,29.466 0 0 0 4.5,14.563 c 1.765,2.913 6.62,8.121 9.445,9.18 4.678,0.353 9.268,-2.825 11.739,-4.855 1.589,-1.324 6.443,-6.708 7.238,-8.562 0,-0.088 0.088,-0.265 0.088,-0.353 l 0.177,-0.53 z"
           transform="translate(0,-21.435)"
           style="fill:url(#linear-gradient-3);fill-rule:evenodd"
           inkscape:connector-curvature="0" />
        <path
           id="Caminho_554"
           data-name="Caminho 554"
           d="m 35.042,92.8 -0.177,0.353 c 0,0.088 -0.088,0.265 -0.088,0.353 -0.794,1.854 -5.649,7.238 -7.238,8.562 -2.471,2.03 -7.061,5.208 -11.739,4.855 a 14.259,14.259 0 0 0 3.178,1.854 32.931,32.931 0 0 0 11.563,2.736 h 2.207 A 29.659,29.659 0 0 0 47.312,106.923 30.979,30.979 0 0 0 57.2,96.506 C 59.76,92.093 61.084,86.973 61.084,80 a 29.6,29.6 0 0 0 -8.738,0.883 30.184,30.184 0 0 0 -6.973,2.736 13.286,13.286 0 0 1 -1.5,0.883 l -5.384,4.237 c -0.53,0.53 -0.618,0.794 -1.147,1.412 z"
           transform="translate(-1.854,-23.245)"
           style="fill:url(#linear-gradient-4);fill-rule:evenodd"
           inkscape:connector-curvature="0" />
        <path
           id="Caminho_555"
           data-name="Caminho 555"
           d="m 119.431,33.6 c -5.473,0 -10.151,1.854 -13.328,5.737 v -5.3 h -9 v 54.818 h 9.444 V 69.348 c 3.266,3.707 7.767,5.384 12.887,5.384 11.739,0 20.39,-8.12 20.39,-20.654 C 139.821,41.721 131.171,33.6 119.431,33.6 Z m -1.059,33.188 c -6.8,0 -12,-4.855 -12,-12.622 0,-7.767 5.208,-12.622 12,-12.622 6.792,0 11.916,4.855 11.916,12.622 0,7.767 -5.119,12.622 -11.916,12.622 z M 163.653,33.6 c -6.443,0 -12.71,1.677 -17.035,4.943 l 3.707,6.885 a 19.938,19.938 0 0 1 12.181,-3.972 c 6.708,0 10.062,3.266 10.062,8.738 v 0.618 h -10.416 c -12.181,0 -16.682,5.3 -16.682,12 0,6.973 5.826,12.092 15.005,12.092 6,0 10.415,-1.942 12.622,-5.384 v 4.855 h 8.915 V 50.724 C 181.924,39.073 175.216,33.6 163.653,33.6 Z m -1.324,34.336 c -4.855,0 -7.679,-2.207 -7.679,-5.561 0,-2.913 1.765,-5.384 8.121,-5.384 h 9.709 v 4.678 c -1.501,4.148 -5.561,6.267 -10.151,6.267 z m 63.022,-33.894 v 5.384 C 222,35.454 217.054,33.6 211.4,33.6 c -11.563,0 -20.3,7.679 -20.3,19.33 0,11.651 8.827,19.507 20.3,19.507 5.384,0 10.151,-1.765 13.5,-5.384 v 2.207 c 0,8.12 -3.884,12.181 -12.8,12.181 -5.561,0 -11.3,-1.854 -14.829,-4.855 l -4.237,7.061 c 4.59,3.8 12.092,5.737 19.6,5.737 14.123,0 21.714,-6.62 21.714,-21.272 V 34.041 Z m -12.534,30.451 c -7.15,0 -12.269,-4.678 -12.269,-11.563 0,-6.8 5.119,-11.386 12.269,-11.386 7.061,0 12.181,4.59 12.181,11.386 0,6.885 -5.119,11.563 -12.181,11.563 z m 63.375,-30.452 v 20.3 c 0,8.032 -4.413,12.092 -11.033,12.092 -5.914,0 -9.445,-3.442 -9.445,-10.769 V 34.041 h -9.444 v 22.95 c 0,12.092 6.973,17.742 17.3,17.742 5.208,0 9.974,-1.942 12.975,-5.649 V 74.2 h 9 V 34.041 Z m 30.717,5.914 v -5.914 h -9 v 40.25 h 9.445 V 54.784 c 0,-8.209 4.5,-12.446 11.651,-12.446 a 10.657,10.657 0 0 1 2.207,0.265 v -9 c -6.708,0 -11.563,2.118 -14.3,6.355 z m 52.254,-5.914 v 20.3 c 0,8.032 -4.413,12.092 -11.033,12.092 -5.914,0 -9.444,-3.442 -9.444,-10.769 V 34.041 h -9.445 v 22.95 c 0,12.092 6.973,17.742 17.3,17.742 5.208,0 9.974,-1.942 12.975,-5.649 V 74.2 h 9 V 34.041 Z"
           transform="translate(-11.393,-17.8)"
           inkscape:connector-curvature="0"
           style="fill:#ffffff" />
        <path
           id="Caminho_556"
           data-name="Caminho 556"
           d="m 261.568,87.8 v 5.384 a 3.813,3.813 0 0 0 -3.354,-1.765 4.288,4.288 0 0 0 -4.413,4.5 4.338,4.338 0 0 0 4.413,4.5 3.752,3.752 0 0 0 3.442,-1.854 v 1.765 H 262.8 V 87.8 Z M 258.3,99.363 a 3.447,3.447 0 1 1 3.266,-3.442 3.269,3.269 0 0 1 -3.266,3.442 z m 8.474,-9.886 a 0.834,0.834 0 0 0 0.883,-0.883 0.815,0.815 0 0 0 -0.883,-0.794 0.834,0.834 0 0 0 -0.883,0.883 0.815,0.815 0 0 0 0.884,0.794 z m -0.618,10.945 h 1.236 v -8.915 h -1.236 z m 11.651,-8.915 v 1.677 a 4.014,4.014 0 0 0 -3.531,-1.765 4.329,4.329 0 1 0 0,8.65 3.861,3.861 0 0 0 3.444,-1.769 v 1.147 c 0,2.207 -1.059,3.266 -3.266,3.266 a 5.207,5.207 0 0 1 -3.531,-1.236 l -0.618,0.883 a 6.366,6.366 0 0 0 4.148,1.412 c 2.913,0 4.413,-1.412 4.413,-4.413 v -7.852 z m -3.442,7.5 a 3.267,3.267 0 1 1 3.354,-3.266 3.127,3.127 0 0 1 -3.353,3.269 z m 8.562,-9.533 a 0.834,0.834 0 0 0 0.883,-0.883 0.815,0.815 0 0 0 -0.883,-0.794 0.834,0.834 0 0 0 -0.883,0.883 0.815,0.815 0 0 0 0.884,0.797 z m -0.618,10.945 h 1.236 v -8.912 h -1.235 z m 8.827,-1.412 a 2.168,2.168 0 0 1 -1.324,0.441 1.417,1.417 0 0 1 -1.5,-1.589 v -5.3 h 2.736 v -1.052 h -2.736 v -1.942 h -1.236 v 1.942 h -1.589 v 1.059 h 1.589 v 5.384 a 2.351,2.351 0 0 0 2.648,2.56 2.623,2.623 0 0 0 1.854,-0.618 l -0.441,-0.883 z m 5.737,-7.591 a 5.443,5.443 0 0 0 -3.619,1.236 l 0.53,0.883 a 4.754,4.754 0 0 1 3,-1.059 c 1.677,0 2.56,0.794 2.56,2.383 v 0.53 h -2.825 c -2.56,0 -3.442,1.147 -3.442,2.56 0,1.5 1.236,2.56 3.266,2.56 a 3.249,3.249 0 0 0 3.089,-1.5 v 1.412 h 1.148 v -5.56 c -0.088,-2.295 -1.412,-3.442 -3.707,-3.442 z m -0.441,8.12 c -1.412,0 -2.295,-0.618 -2.295,-1.677 0,-0.883 0.53,-1.589 2.295,-1.589 h 2.824 v 1.412 a 2.826,2.826 0 0 1 -2.824,1.854 z m 7.326,0.883 h 1.236 V 87.8 h -1.236 z m 11.386,0.088 c 2.295,0 3.707,-0.971 3.707,-2.56 0,-3.442 -5.737,-1.589 -5.737,-4.06 0,-0.883 0.706,-1.5 2.295,-1.5 a 4.241,4.241 0 0 1 2.648,0.794 l 0.53,-0.971 a 5.851,5.851 0 0 0 -3.178,-0.794 c -2.295,0 -3.531,1.059 -3.531,2.56 0,3.531 5.737,1.677 5.737,4.06 0,0.883 -0.706,1.5 -2.383,1.5 a 5.655,5.655 0 0 1 -3.178,-0.971 l -0.53,0.971 a 7.4,7.4 0 0 0 3.619,0.971 z m 9.533,0 a 4.5,4.5 0 1 0 0,-9 4.31,4.31 0 0 0 -4.5,4.5 4.411,4.411 0 0 0 4.501,4.503 z m 0,-1.147 a 3.444,3.444 0 0 1 0,-6.885 3.447,3.447 0 0 1 0,6.885 z m 6.973,1.059 h 1.236 V 87.8 h -1.236 z m 11.386,-8.915 v 4.678 c 0,2.03 -1.148,3.266 -3,3.266 -1.677,0 -2.648,-0.971 -2.648,-2.825 v -5.116 h -1.236 v 5.208 a 3.44,3.44 0 0 0 3.8,3.8 3.531,3.531 0 0 0 3.178,-1.677 v 1.589 h 1.147 v -8.92 z m 8.827,7.5 a 2.168,2.168 0 0 1 -1.324,0.441 1.417,1.417 0 0 1 -1.5,-1.589 v -5.3 h 2.736 v -1.049 h -2.736 V 89.565 H 347.8 v 1.942 h -1.589 v 1.059 h 1.589 v 5.384 a 2.351,2.351 0 0 0 2.648,2.56 2.623,2.623 0 0 0 1.854,-0.618 l -0.441,-0.883 z m 3.266,-9.533 a 0.834,0.834 0 0 0 0.883,-0.883 0.815,0.815 0 0 0 -0.883,-0.794 0.834,0.834 0 0 0 -0.883,0.883 0.815,0.815 0 0 0 0.884,0.8 z m -0.618,10.945 h 1.236 v -8.909 h -1.236 z m 8.209,0.088 a 4.5,4.5 0 1 0 0,-9 4.5,4.5 0 0 0 0,9 z m 0,-1.147 a 3.444,3.444 0 0 1 0,-6.885 3.2,3.2 0 0 1 3.266,3.442 3.249,3.249 0 0 1 -3.265,3.449 z m 11.563,-7.944 A 3.732,3.732 0 0 0 370.93,93.1 v -1.593 h -1.148 v 8.915 h 1.236 v -4.678 a 2.9,2.9 0 0 1 3.089,-3.178 c 1.677,0 2.648,0.971 2.648,2.825 v 5.031 h 1.236 v -5.208 c -0.088,-2.56 -1.589,-3.8 -3.707,-3.8 z m 9.268,9.091 c 2.295,0 3.707,-0.971 3.707,-2.56 0,-3.442 -5.737,-1.589 -5.737,-4.06 0,-0.883 0.706,-1.5 2.295,-1.5 a 4.241,4.241 0 0 1 2.648,0.794 l 0.53,-0.971 a 5.851,5.851 0 0 0 -3.178,-0.794 c -2.295,0 -3.531,1.059 -3.531,2.56 0,3.531 5.737,1.677 5.737,4.06 0,0.883 -0.706,1.5 -2.383,1.5 a 5.656,5.656 0 0 1 -3.178,-0.971 l -0.53,0.971 a 7.4,7.4 0 0 0 3.619,0.971 z"
           transform="translate(-29.78,-24.16)"
           inkscape:connector-curvature="0"
           style="fill:#ffffff" />
      </g>
    </g>
  </g>
</svg>
